<svg
 xmlns="http://www.w3.org/2000/svg"
 xmlns:xlink="http://www.w3.org/1999/xlink"
 width="150px" height="26px">
<rect  x="354" y="432" width="150" height="26" fill="white" />
<path fill-rule="evenodd"  fill="rgb(117, 117, 117)"
 d="M139.840,14.962 L139.840,24.170 L135.747,24.170 L135.747,15.061 L126.572,1.067 L131.358,1.067 L137.827,11.299 L144.362,1.067 L149.015,1.067 L139.840,14.962 ZM117.664,24.170 L113.571,24.170 L113.571,4.830 L106.244,4.830 L106.244,1.067 L124.991,1.067 L124.991,4.830 L117.664,4.830 L117.664,24.170 ZM97.995,1.067 L102.054,1.067 L102.054,24.170 L97.995,24.170 L97.995,1.067 ZM80.968,24.336 L71.363,1.067 L75.852,1.067 L82.816,18.824 L89.747,1.067 L94.137,1.067 L84.532,24.336 L80.968,24.336 ZM68.726,24.170 L66.382,18.593 L55.458,18.593 L53.082,24.170 L48.923,24.170 L59.088,0.902 L62.851,0.902 L73.016,24.170 L68.726,24.170 ZM60.904,5.754 L56.943,14.995 L64.897,14.995 L60.904,5.754 ZM42.193,24.170 L36.517,16.117 L31.434,16.117 L31.434,24.170 L27.374,24.170 L27.374,1.067 L37.672,1.067 C40.576,1.067 42.853,1.925 44.339,3.377 C45.560,4.632 46.253,6.348 46.253,8.361 L46.253,8.427 C46.253,12.223 43.976,14.500 40.741,15.424 L46.979,24.170 L42.193,24.170 ZM42.127,8.658 L42.127,8.592 C42.127,6.117 40.345,4.764 37.342,4.764 L31.434,4.764 L31.434,12.520 L37.375,12.520 C40.279,12.520 42.127,11.002 42.127,8.658 ZM12.790,24.567 C5.562,24.567 0.809,19.418 0.809,12.685 L0.809,12.619 C0.809,6.150 5.760,0.671 12.724,0.671 C16.750,0.671 19.226,1.793 21.602,3.807 L19.028,6.876 C17.245,5.358 15.496,4.401 12.559,4.401 C8.301,4.401 5.067,8.130 5.067,12.553 L5.067,12.619 C5.067,17.371 8.202,20.870 12.922,20.870 C15.100,20.870 17.080,20.177 18.500,19.121 L18.500,14.797 L12.592,14.797 L12.592,11.266 L22.427,11.266 L22.427,20.969 C20.150,22.916 16.882,24.567 12.790,24.567 Z"/>
</svg>