<svg
 xmlns="http://www.w3.org/2000/svg"
 xmlns:xlink="http://www.w3.org/1999/xlink"
 width="143px" height="145px">
<path fill-rule="evenodd"  fill="rgb(117, 117, 117)"
 d="M90.000,140.570 L90.000,137.451 C118.838,129.376 139.997,102.918 139.997,71.500 C139.997,33.668 109.329,2.999 71.498,2.999 C38.304,2.999 10.633,26.614 4.346,57.958 L1.541,56.827 C8.313,24.382 37.044,-0.001 71.498,-0.001 C110.986,-0.001 142.996,32.011 142.996,71.500 C142.996,104.588 120.516,132.415 90.000,140.570 Z"/>
<path fill-rule="evenodd"  fill="rgb(117, 117, 117)"
 d="M71.999,10.999 C105.135,10.999 131.997,37.862 131.997,71.000 C131.997,104.138 105.135,131.001 71.999,131.001 C38.862,131.001 12.000,104.138 12.000,71.000 C12.000,37.862 38.862,10.999 71.999,10.999 Z"/>
<path fill-rule="evenodd"  fill="rgb(245, 245, 245)"
 d="M71.999,13.999 C103.478,13.999 128.997,39.519 128.997,71.000 C128.997,102.481 103.478,128.001 71.999,128.001 C40.519,128.001 15.000,102.481 15.000,71.000 C15.000,39.519 40.519,13.999 71.999,13.999 Z"/>
<path fill-rule="evenodd"  fill="rgb(224, 224, 224)"
 d="M97.098,45.766 C95.850,44.521 93.825,44.521 92.577,45.766 L81.592,62.655 L62.695,33.244 C61.446,31.999 59.422,31.999 58.174,33.244 L18.992,91.849 C27.365,113.015 48.009,127.995 72.167,127.995 C96.959,127.995 118.058,112.225 125.983,90.178 L97.098,45.766 Z"/>
<path fill-rule="evenodd"  fill="rgb(255, 255, 255)"
 d="M97.532,50.765 C96.269,49.530 94.870,49.426 93.607,50.662 L82.045,68.777 L62.528,38.209 C61.265,36.974 59.623,36.974 58.360,38.209 L35.054,74.900 L35.016,75.114 L34.996,75.365 C48.176,63.087 69.456,74.268 80.965,82.413 C90.216,88.961 114.341,101.985 115.982,80.670 L115.988,80.595 L115.989,80.192 L97.532,50.765 Z"/>
<path fill-rule="evenodd"  fill="rgb(117, 117, 117)"
 d="M125.129,95.486 L118.243,85.002 C116.367,92.043 111.415,96.000 104.167,96.000 C99.953,96.000 94.961,94.676 89.330,92.065 C83.796,89.499 79.263,86.424 77.570,85.221 C62.551,74.543 52.167,73.390 48.399,73.390 C43.627,73.390 38.162,75.042 35.000,78.000 L29.666,83.262 L19.918,97.989 C19.216,96.572 18.577,95.120 17.992,93.639 L58.174,32.931 C58.798,32.308 59.616,31.996 60.434,31.996 C61.252,31.996 62.071,32.308 62.695,32.931 L81.592,62.394 L92.577,45.475 C93.201,44.852 94.019,44.540 94.837,44.540 C95.656,44.540 96.474,44.852 97.098,45.475 L126.983,90.965 C126.431,92.505 125.807,94.010 125.129,95.486 ZM94.837,49.370 L84.963,64.578 L81.572,69.802 L78.209,64.560 L60.412,36.813 L37.010,72.168 C40.567,70.255 44.633,69.388 48.399,69.388 C59.674,69.388 72.059,76.384 79.908,81.965 C85.372,85.849 96.014,91.998 104.167,91.998 C109.845,91.998 114.315,89.016 114.990,80.210 L114.996,80.135 L114.997,80.060 L94.837,49.370 Z"/>
<path fill-rule="evenodd"  fill="rgb(117, 117, 117)"
 d="M83.622,141.514 L83.827,143.150 L78.195,143.858 L77.323,136.917 L82.905,136.215 L83.111,137.852 L79.432,138.314 L79.564,139.365 L82.896,138.946 L83.087,140.463 L79.755,140.882 L79.894,141.983 L83.622,141.514 ZM74.508,140.031 L72.750,142.795 L72.710,142.796 L70.896,140.095 L70.944,144.098 L69.043,144.121 L68.958,137.116 L71.009,137.091 L72.713,139.783 L74.352,137.050 L76.404,137.026 L76.488,144.031 L74.557,144.054 L74.508,140.031 ZM64.416,138.314 L64.311,139.369 L67.654,139.703 L67.502,141.225 L64.158,140.891 L64.048,141.996 L67.790,142.370 L67.626,144.011 L61.974,143.447 L62.669,136.482 L68.271,137.041 L68.107,138.683 L64.416,138.314 ZM58.410,142.819 L58.953,140.213 L56.514,139.705 L55.971,142.311 L54.070,141.914 L55.500,135.057 L57.401,135.453 L56.865,138.020 L59.305,138.528 L59.840,135.962 L61.741,136.358 L60.310,143.216 L58.410,142.819 ZM52.399,135.884 L50.773,140.922 L48.928,140.327 L50.554,135.289 L48.558,134.645 L49.080,133.029 L54.917,134.912 L54.395,136.528 L52.399,135.884 ZM43.551,132.455 L41.221,137.214 L39.479,136.361 L41.809,131.602 L39.924,130.679 L40.671,129.153 L46.184,131.852 L45.436,133.379 L43.551,132.455 ZM36.898,135.073 L35.006,133.890 L34.989,131.390 L32.725,132.463 L30.876,131.307 L34.800,129.561 L34.674,125.423 L36.565,126.606 L36.572,128.934 L38.677,127.927 L40.526,129.083 L36.761,130.764 L36.898,135.073 ZM30.469,124.224 L29.817,125.058 L32.463,127.128 L31.520,128.333 L28.874,126.263 L28.190,127.137 L31.152,129.453 L30.135,130.753 L25.662,127.254 L29.974,121.742 L34.407,125.209 L33.391,126.509 L30.469,124.224 ZM26.739,121.053 L23.130,124.940 L21.707,123.619 L25.316,119.732 L23.777,118.302 L24.934,117.056 L29.436,121.237 L28.279,122.483 L26.739,121.053 ZM19.210,112.737 L18.376,113.393 L20.455,116.036 L19.252,116.983 L17.173,114.340 L16.300,115.027 L18.626,117.984 L17.328,119.005 L13.814,114.537 L19.320,110.206 L22.804,114.635 L21.506,115.656 L19.210,112.737 ZM11.785,111.555 L15.207,109.445 L11.935,109.360 L11.914,109.326 L13.295,106.383 L9.890,108.483 L8.892,106.866 L14.850,103.190 L15.927,104.935 L14.497,107.780 L17.680,107.778 L18.757,109.523 L12.799,113.198 L11.785,111.555 ZM7.273,103.522 L13.538,100.401 L14.407,102.146 L8.143,105.267 L7.273,103.522 ZM8.240,101.724 L6.668,102.370 L4.643,97.440 L11.118,94.781 L11.855,96.575 L6.953,98.589 L8.240,101.724 ZM9.081,94.376 L9.062,94.382 C8.286,94.614 7.694,94.311 7.257,93.795 C7.233,94.689 6.928,95.344 6.018,95.617 L5.998,95.623 C4.849,95.967 3.868,95.237 3.389,93.637 L2.353,90.178 L9.060,88.170 L10.090,91.610 C10.343,92.453 10.310,93.110 10.035,93.621 C9.847,93.969 9.541,94.238 9.081,94.376 ZM6.051,92.590 L5.626,91.172 L4.390,91.542 L4.820,92.979 C4.990,93.544 5.308,93.804 5.701,93.686 L5.720,93.681 C6.084,93.572 6.237,93.212 6.051,92.590 ZM8.469,91.636 L8.108,90.428 L6.929,90.781 L7.279,91.950 C7.449,92.516 7.735,92.774 8.128,92.657 L8.147,92.651 C8.511,92.542 8.636,92.191 8.469,91.636 ZM1.240,85.422 C0.879,83.468 1.644,82.057 3.795,81.659 L7.655,80.946 L8.012,82.881 L4.192,83.587 C3.200,83.770 2.821,84.358 2.962,85.124 C3.104,85.890 3.648,86.308 4.611,86.130 L8.481,85.415 L8.838,87.350 L5.027,88.054 C2.808,88.464 1.601,87.377 1.240,85.422 ZM5.333,79.379 C5.733,78.706 5.918,77.990 5.870,77.372 C5.834,76.903 5.616,76.690 5.367,76.709 L5.347,76.711 C5.028,76.735 4.907,76.985 4.763,77.969 C4.539,79.601 4.098,80.638 2.792,80.739 L2.772,80.740 C1.347,80.851 0.412,79.790 0.281,78.096 C0.185,76.860 0.483,75.654 1.184,74.737 L2.553,75.714 C2.058,76.444 1.829,77.234 1.891,78.041 C1.931,78.559 2.132,78.825 2.431,78.801 L2.451,78.800 C2.740,78.778 2.882,78.536 3.028,77.572 C3.252,76.061 3.581,74.882 5.017,74.771 L5.037,74.770 C6.332,74.669 7.349,75.623 7.478,77.297 C7.570,78.483 7.323,79.435 6.774,80.240 L5.333,79.379 ZM0.085,70.997 L0.235,68.923 L1.518,68.505 L1.713,65.812 L0.502,65.224 L0.650,63.189 L7.465,66.670 L7.330,68.534 L0.085,70.997 ZM3.177,66.490 L3.064,68.055 L5.105,67.421 L3.177,66.490 Z"/>
<path fill-rule="evenodd"  fill="rgb(117, 117, 117)"
 d="M70.500,101.000 L132.500,101.000 C137.747,101.000 142.000,105.253 142.000,110.500 C142.000,115.747 137.747,120.000 132.500,120.000 L70.500,120.000 C65.253,120.000 61.000,115.747 61.000,110.500 C61.000,105.253 65.253,101.000 70.500,101.000 Z"/>
<path fill-rule="evenodd"  fill="rgb(255, 255, 255)"
 d="M131.682,111.548 L131.682,115.732 L129.373,115.732 L129.373,111.593 L125.339,105.234 L128.038,105.234 L130.542,109.448 L133.092,105.234 L135.716,105.234 L131.682,111.548 ZM121.452,115.732 L119.143,115.732 L119.143,107.364 L115.949,107.364 L115.949,105.234 L124.647,105.234 L124.647,107.364 L121.452,107.364 L121.452,115.732 ZM111.764,105.234 L114.073,105.234 L114.073,115.732 L111.764,115.732 L111.764,105.234 ZM103.753,115.807 L99.509,105.234 L102.058,105.234 L104.803,112.627 L107.547,105.234 L110.036,105.234 L105.792,115.807 L103.753,115.807 ZM97.872,115.732 L96.912,113.377 L92.473,113.377 L91.513,115.732 L89.159,115.732 L93.658,105.159 L95.787,105.159 L100.286,115.732 L97.872,115.732 ZM94.692,107.933 L93.298,111.338 L96.087,111.338 L94.692,107.933 ZM85.587,115.732 L83.338,112.372 L81.523,112.372 L81.523,115.732 L79.214,115.732 L79.214,105.234 L84.013,105.234 C85.347,105.234 86.382,105.609 87.072,106.299 C87.657,106.884 87.972,107.709 87.972,108.698 L87.972,108.728 C87.972,110.423 87.057,111.488 85.722,111.983 L88.286,115.732 L85.587,115.732 ZM85.632,108.818 C85.632,107.829 84.942,107.319 83.818,107.319 L81.523,107.319 L81.523,110.333 L83.863,110.333 C84.987,110.333 85.632,109.733 85.632,108.848 L85.632,108.818 ZM72.508,115.912 C69.238,115.912 66.989,113.617 66.989,110.513 L66.989,110.483 C66.989,107.499 69.313,105.054 72.493,105.054 C74.382,105.054 75.522,105.564 76.617,106.494 L75.162,108.248 C74.352,107.574 73.632,107.184 72.418,107.184 C70.738,107.184 69.403,108.668 69.403,110.453 L69.403,110.483 C69.403,112.402 70.723,113.812 72.582,113.812 C73.422,113.812 74.172,113.602 74.757,113.182 L74.757,111.683 L72.433,111.683 L72.433,109.688 L76.991,109.688 L76.991,114.247 C75.912,115.162 74.427,115.912 72.508,115.912 Z"/>
</svg>