<svg
 xmlns="http://www.w3.org/2000/svg"
 xmlns:xlink="http://www.w3.org/1999/xlink"
 width="150px" height="40px">
<rect  x="354" y="562" width="150" height="40" fill="white" />
<path fill-rule="evenodd"  fill="rgb(85, 94, 105)"
 d="M30.153,34.537 L23.591,34.537 C23.767,36.282 25.047,37.290 26.504,37.290 C27.640,37.290 28.441,36.826 29.113,36.122 L29.881,36.810 C29.049,37.738 28.041,38.363 26.472,38.363 C24.199,38.363 22.342,36.618 22.342,34.041 C22.342,31.640 24.023,29.719 26.312,29.719 C28.761,29.719 30.169,31.672 30.169,34.105 C30.169,34.217 30.169,34.345 30.153,34.537 ZM26.280,30.759 C24.855,30.759 23.767,31.944 23.591,33.545 L28.921,33.545 C28.777,32.040 27.913,30.759 26.280,30.759 ZM19.161,33.337 C19.161,31.800 18.329,30.840 16.872,30.840 C15.447,30.840 14.391,31.880 14.391,33.433 L14.391,38.170 L13.158,38.170 L13.158,29.895 L14.391,29.895 L14.391,31.336 C14.935,30.439 15.800,29.719 17.224,29.719 C19.225,29.719 20.393,31.064 20.393,33.032 L20.393,38.170 L19.161,38.170 L19.161,33.337 ZM6.760,38.363 C4.279,38.363 2.470,36.410 2.470,34.073 L2.470,34.041 C2.470,31.704 4.295,29.719 6.792,29.719 C9.273,29.719 11.098,31.672 11.098,34.009 L11.098,34.041 C11.098,36.378 9.257,38.363 6.760,38.363 ZM9.833,34.041 C9.833,32.264 8.505,30.808 6.760,30.808 C4.967,30.808 3.735,32.264 3.735,34.009 L3.735,34.041 C3.735,35.818 5.047,37.258 6.792,37.258 C8.585,37.258 9.833,35.818 9.833,34.073 L9.833,34.041 Z"/>
<path fill-rule="evenodd"  fill="rgb(85, 94, 105)"
 d="M139.840,14.962 L139.840,24.170 L135.747,24.170 L135.747,15.061 L126.572,1.067 L131.358,1.067 L137.827,11.299 L144.362,1.067 L149.015,1.067 L139.840,14.962 ZM117.664,24.170 L113.571,24.170 L113.571,4.830 L106.244,4.830 L106.244,1.067 L124.991,1.067 L124.991,4.830 L117.664,4.830 L117.664,24.170 ZM97.995,1.067 L102.054,1.067 L102.054,24.170 L97.995,24.170 L97.995,1.067 ZM80.968,24.336 L71.363,1.067 L75.852,1.067 L82.816,18.824 L89.747,1.067 L94.137,1.067 L84.532,24.336 L80.968,24.336 ZM68.726,24.170 L66.382,18.593 L55.458,18.593 L53.082,24.170 L48.923,24.170 L59.088,0.902 L62.851,0.902 L73.016,24.170 L68.726,24.170 ZM60.904,5.754 L56.943,14.995 L64.897,14.995 L60.904,5.754 ZM42.193,24.170 L36.517,16.117 L31.434,16.117 L31.434,24.170 L27.374,24.170 L27.374,1.067 L37.672,1.067 C40.576,1.067 42.853,1.925 44.339,3.377 C45.560,4.632 46.253,6.348 46.253,8.361 L46.253,8.427 C46.253,12.223 43.976,14.500 40.741,15.424 L46.979,24.170 L42.193,24.170 ZM42.127,8.658 L42.127,8.592 C42.127,6.117 40.345,4.764 37.342,4.764 L31.434,4.764 L31.434,12.520 L37.375,12.520 C40.279,12.520 42.127,11.002 42.127,8.658 ZM12.790,24.567 C5.562,24.567 0.809,19.418 0.809,12.685 L0.809,12.619 C0.809,6.150 5.760,0.671 12.724,0.671 C16.750,0.671 19.226,1.793 21.602,3.807 L19.028,6.876 C17.245,5.358 15.496,4.401 12.559,4.401 C8.301,4.401 5.067,8.130 5.067,12.553 L5.067,12.619 C5.067,17.371 8.202,20.870 12.922,20.870 C15.100,20.870 17.080,20.177 18.500,19.121 L18.500,14.797 L12.592,14.797 L12.592,11.266 L22.427,11.266 L22.427,20.969 C20.150,22.916 16.882,24.567 12.790,24.567 Z"/>
</svg>