<svg
 xmlns="http://www.w3.org/2000/svg"
 xmlns:xlink="http://www.w3.org/1999/xlink"
 width="1440px" height="3000px">
<rect  x="1744" y="210" width="1440" height="3000" fill="white" />
<path fill-rule="evenodd"  opacity="0" fill="rgb(0, 0, 0)"
 d="M-0.000,0.000 L1440.000,0.000 L1440.000,3000.000 L-0.000,3000.000 L-0.000,0.000 Z"/>
<path fill-rule="evenodd"  fill="rgb(246, 246, 246)"
 d="M-0.000,456.784 L276.536,26.536 C299.985,-7.752 335.331,-6.256 356.656,26.536 L956.286,872.523 L1095.950,661.062 C1122.663,627.319 1154.763,629.444 1178.564,661.062 L1440.000,1068.099 L1440.000,3000.000 L-0.000,3000.000 L-0.000,456.784 Z"/>
<path fill-rule="evenodd"  fill="rgb(255, 255, 255)"
 d="M1440.000,3000.000 L0.000,3000.000 L0.000,2912.430 L629.797,1954.954 C649.661,1920.562 689.287,1920.355 712.410,1954.954 L913.127,2263.682 L1258.436,1726.062 C1281.815,1692.799 1318.606,1691.326 1341.050,1726.062 L1440.000,1903.282 L1440.000,3000.000 Z"/>
</svg>