<svg
 xmlns="http://www.w3.org/2000/svg"
 xmlns:xlink="http://www.w3.org/1999/xlink"
 width="190px" height="48px">
<defs>
<linearGradient id="PSgrad_0" x1="0%" x2="30.902%" y1="95.106%" y2="0%">
  <stop offset="45%" stop-color="rgb(255,255,255)" stop-opacity="1" />
  <stop offset="100%" stop-color="rgb(153,153,153)" stop-opacity="1" />
</linearGradient>

</defs>
<path fill-rule="evenodd"  fill="rgb(255, 152, 0)"
 d="M3.000,-0.000 L45.000,-0.000 C46.657,-0.000 48.000,1.343 48.000,3.000 L48.000,45.000 C48.000,46.657 46.657,48.000 45.000,48.000 L3.000,48.000 C1.343,48.000 -0.000,46.657 -0.000,45.000 L-0.000,3.000 C-0.000,1.343 1.343,-0.000 3.000,-0.000 Z"/>
<path fill-rule="evenodd"  fill="rgb(255, 152, 0)"
 d="M46.500,13.500 C52.299,13.500 57.000,18.201 57.000,24.000 C57.000,29.799 52.299,34.500 46.500,34.500 C40.701,34.500 36.000,29.799 36.000,24.000 C36.000,18.201 40.701,13.500 46.500,13.500 Z"/>
<path fill-rule="evenodd"  fill="rgb(255, 255, 255)"
 d="M34.957,24.103 C34.957,23.751 34.699,23.549 34.382,23.649 L12.577,30.600 C12.260,30.701 12.002,31.068 12.002,31.419 L12.002,38.522 C12.002,38.873 12.260,39.077 12.577,38.975 L34.382,32.026 C34.699,31.925 34.957,31.557 34.957,31.206 L34.957,24.103 L34.957,24.103 Z"/>
<path fill="url(#PSgrad_0)"
 d="M34.957,24.103 C34.957,23.751 34.699,23.549 34.382,23.649 L12.577,30.600 C12.260,30.701 12.002,31.068 12.002,31.419 L12.002,38.522 C12.002,38.873 12.260,39.077 12.577,38.975 L34.382,32.026 C34.699,31.925 34.957,31.557 34.957,31.206 L34.957,24.103 L34.957,24.103 Z"/>
<path fill-rule="evenodd"  fill="rgb(255, 255, 255)"
 d="M34.957,24.107 L34.957,31.211 C34.957,31.561 34.699,31.764 34.382,31.663 L12.577,24.713 C12.274,24.616 12.032,24.277 12.010,23.940 C12.009,23.925 12.002,23.914 12.002,23.898 L12.002,23.893 L12.002,16.795 L12.002,16.790 C12.002,16.776 12.008,16.767 12.009,16.754 C12.028,16.415 12.272,16.072 12.577,15.975 L34.382,9.025 C34.699,8.924 34.957,9.127 34.957,9.479 L34.957,16.582 C34.957,16.933 34.699,17.300 34.382,17.401 L25.147,20.345 L34.382,23.288 C34.699,23.389 34.957,23.756 34.957,24.107 Z"/>
<path fill-rule="evenodd"  fill="rgb(255, 255, 255)"
 d="M52.797,23.009 C52.851,23.009 52.901,23.031 52.947,23.077 C52.993,23.123 53.015,23.173 53.015,23.227 L53.015,24.797 C53.015,24.852 52.993,24.902 52.947,24.948 C52.901,24.993 52.851,25.016 52.797,25.016 L49.001,25.016 L49.001,28.781 C49.001,28.835 48.979,28.886 48.933,28.931 C48.887,28.977 48.837,28.999 48.783,28.999 L47.213,28.999 C47.158,28.999 47.108,28.977 47.062,28.931 C47.017,28.886 46.994,28.835 46.994,28.781 L46.994,25.016 L43.199,25.016 C43.144,25.016 43.094,24.993 43.048,24.948 C43.003,24.902 42.980,24.852 42.980,24.797 L42.980,23.227 C42.980,23.173 43.003,23.123 43.048,23.077 C43.094,23.031 43.144,23.009 43.199,23.009 L46.994,23.009 L46.994,19.206 C46.994,19.152 47.017,19.102 47.062,19.056 C47.108,19.010 47.158,18.988 47.213,18.988 L48.783,18.988 C48.837,18.988 48.887,19.010 48.933,19.056 C48.979,19.102 49.001,19.152 49.001,19.206 L49.001,23.009 L52.797,23.009 Z"/>
<path fill-rule="evenodd"  fill="rgb(117, 117, 117)"
 d="M187.253,36.035 L187.253,25.086 L189.533,25.086 L189.533,36.035 L187.253,36.035 ZM185.042,22.141 C183.911,22.141 182.858,21.855 181.974,21.322 L182.559,20.139 C183.287,20.594 184.067,20.867 185.003,20.867 C186.407,20.867 187.174,20.139 187.174,18.761 L187.174,18.228 C186.602,18.969 185.887,19.489 184.756,19.489 C183.144,19.489 181.636,18.293 181.636,16.278 L181.636,16.252 C181.636,14.224 183.157,13.028 184.756,13.028 C185.913,13.028 186.628,13.561 187.161,14.198 L187.161,13.171 L188.734,13.171 L188.734,18.631 C188.734,19.788 188.435,20.646 187.863,21.218 C187.239,21.842 186.277,22.141 185.042,22.141 ZM187.187,16.252 C187.187,15.121 186.264,14.354 185.172,14.354 C184.080,14.354 183.222,15.108 183.222,16.239 L183.222,16.265 C183.222,17.396 184.093,18.163 185.172,18.163 C186.264,18.163 187.187,17.383 187.187,16.278 L187.187,16.252 ZM185.648,32.000 L185.648,32.030 C185.648,34.340 183.788,36.215 181.283,36.215 C178.793,36.215 176.948,34.370 176.948,32.060 L176.948,32.030 C176.948,29.720 178.808,27.845 181.313,27.845 C183.803,27.845 185.648,29.690 185.648,32.000 ZM181.283,29.810 C179.978,29.810 179.198,30.815 179.198,32.000 L179.198,32.030 C179.198,33.215 180.053,34.250 181.313,34.250 C182.618,34.250 183.398,33.245 183.398,32.060 L183.398,32.030 C183.398,30.845 182.543,29.810 181.283,29.810 ZM178.646,16.135 C178.646,15.069 178.113,14.458 177.177,14.458 C176.267,14.458 175.630,15.095 175.630,16.161 L175.630,20.035 L174.057,20.035 L174.057,13.171 L175.630,13.171 L175.630,14.237 C176.072,13.587 176.709,13.028 177.775,13.028 C179.322,13.028 180.219,14.068 180.219,15.667 L180.219,20.035 L178.646,20.035 L178.646,16.135 ZM176.288,27.845 L176.288,30.230 L176.168,30.230 C174.653,30.230 173.723,31.145 173.723,33.065 L173.723,36.035 L171.443,36.035 L171.443,27.995 L173.723,27.995 L173.723,29.615 C174.188,28.505 174.938,27.785 176.288,27.845 ZM170.495,10.623 L172.185,10.623 L172.185,12.118 L170.495,12.118 L170.495,10.623 ZM168.023,33.380 C168.023,33.905 168.248,34.160 168.758,34.160 C169.178,34.160 169.553,34.055 169.883,33.875 L169.883,35.705 C169.403,35.990 168.848,36.170 168.083,36.170 C166.688,36.170 165.743,35.615 165.743,33.755 L165.743,29.945 L164.783,29.945 L164.783,27.995 L165.743,27.995 L165.743,25.941 L168.023,25.941 L168.023,27.995 L169.913,27.995 L169.913,29.945 L168.023,29.945 L168.023,33.380 ZM166.452,20.165 C165.477,20.165 164.398,19.814 163.540,19.138 L164.242,18.072 C164.983,18.631 165.789,18.917 166.491,18.917 C167.167,18.917 167.557,18.631 167.557,18.176 L167.557,18.150 C167.557,17.617 166.829,17.435 166.023,17.188 C165.009,16.902 163.878,16.486 163.878,15.173 L163.878,15.147 C163.878,13.847 164.957,13.054 166.322,13.054 C167.180,13.054 168.116,13.353 168.844,13.834 L168.220,14.952 C167.557,14.549 166.855,14.302 166.283,14.302 C165.672,14.302 165.321,14.588 165.321,14.991 L165.321,15.017 C165.321,15.511 166.062,15.719 166.868,15.979 C167.869,16.291 169.000,16.746 169.000,17.981 L169.000,18.007 C169.000,19.450 167.882,20.165 166.452,20.165 ZM161.258,31.550 C161.258,30.470 160.748,29.915 159.878,29.915 C159.008,29.915 158.453,30.470 158.453,31.550 L158.453,36.035 L156.173,36.035 L156.173,27.995 L158.453,27.995 L158.453,29.135 C158.978,28.460 159.653,27.845 160.808,27.845 C162.533,27.845 163.538,28.985 163.538,30.830 L163.538,36.035 L161.258,36.035 L161.258,31.550 ZM158.301,20.178 C155.935,20.178 154.427,18.813 154.427,16.174 L154.427,10.935 L156.026,10.935 L156.026,16.109 C156.026,17.799 156.897,18.709 158.327,18.709 C159.744,18.709 160.615,17.851 160.615,16.174 L160.615,10.935 L162.214,10.935 L162.214,16.096 C162.214,18.813 160.680,20.178 158.301,20.178 ZM154.673,32.030 C154.673,34.340 152.813,36.215 150.308,36.215 C147.819,36.215 145.974,34.370 145.974,32.060 L145.974,32.030 C145.974,29.720 147.834,27.845 150.338,27.845 C152.828,27.845 154.673,29.690 154.673,32.000 L154.673,32.030 ZM152.423,32.030 C152.423,30.845 151.568,29.810 150.308,29.810 C149.004,29.810 148.224,30.815 148.224,32.000 L148.224,32.030 C148.224,33.215 149.079,34.250 150.338,34.250 C151.643,34.250 152.423,33.245 152.423,32.060 L152.423,32.030 ZM144.092,17.162 C144.261,18.280 145.054,18.904 146.068,18.904 C146.835,18.904 147.381,18.618 147.927,18.085 L148.850,18.904 C148.200,19.684 147.303,20.191 146.042,20.191 C144.053,20.191 142.519,18.748 142.519,16.629 L142.519,16.603 C142.519,14.640 143.910,13.028 145.873,13.028 C148.057,13.028 149.162,14.744 149.162,16.720 C149.162,16.863 149.149,17.006 149.136,17.162 L144.092,17.162 ZM145.860,14.315 C144.898,14.315 144.222,15.056 144.079,16.122 L147.602,16.122 C147.498,15.108 146.900,14.315 145.860,14.315 ZM143.513,28.670 C142.703,27.935 141.878,27.486 140.828,27.486 C139.059,27.486 137.784,28.955 137.784,30.755 L137.784,30.785 C137.784,32.585 139.029,34.085 140.828,34.085 C142.028,34.085 142.763,33.605 143.588,32.855 L145.058,34.340 C143.978,35.495 142.778,36.215 140.753,36.215 C137.664,36.215 135.369,33.830 135.369,30.815 L135.369,30.785 C135.369,27.800 137.619,25.356 140.843,25.356 C142.823,25.356 144.008,26.016 144.983,26.976 L143.513,28.670 ZM139.543,16.135 C139.543,15.043 139.036,14.458 138.152,14.458 C137.293,14.458 136.682,15.056 136.682,16.161 L136.682,20.035 L135.109,20.035 L135.109,16.122 C135.109,15.056 134.589,14.458 133.718,14.458 C132.847,14.458 132.249,15.108 132.249,16.174 L132.249,20.035 L130.676,20.035 L130.676,13.171 L132.249,13.171 L132.249,14.211 C132.691,13.600 133.289,13.028 134.342,13.028 C135.330,13.028 136.019,13.509 136.383,14.237 C136.942,13.509 137.671,13.028 138.711,13.028 C140.206,13.028 141.116,13.977 141.116,15.654 L141.116,20.035 L139.543,20.035 L139.543,16.135 ZM124.074,32.810 C124.299,33.845 125.019,34.385 126.039,34.385 C126.804,34.385 127.359,34.145 127.989,33.560 L129.294,34.715 C128.544,35.645 127.464,36.215 126.009,36.215 C123.594,36.215 121.809,34.520 121.809,32.060 L121.809,32.030 C121.809,29.735 123.444,27.845 125.784,27.845 C128.469,27.845 129.699,29.930 129.699,32.210 C129.699,32.390 129.684,32.600 129.669,32.810 L124.074,32.810 ZM125.784,29.675 C124.839,29.675 124.224,30.350 124.044,31.385 L127.479,31.385 C127.344,30.365 126.744,29.675 125.784,29.675 ZM124.150,17.162 C124.319,18.280 125.112,18.904 126.127,18.904 C126.894,18.904 127.440,18.618 127.986,18.085 L128.909,18.904 C128.259,19.684 127.362,20.191 126.101,20.191 C124.111,20.191 122.577,18.748 122.577,16.629 L122.577,16.603 C122.577,14.640 123.968,13.028 125.932,13.028 C128.116,13.028 129.221,14.744 129.221,16.720 C129.221,16.863 129.208,17.006 129.195,17.162 L124.150,17.162 ZM125.919,14.315 C124.956,14.315 124.280,15.056 124.137,16.122 L127.661,16.122 C127.557,15.108 126.959,14.315 125.919,14.315 ZM119.614,16.135 C119.614,15.069 119.081,14.458 118.145,14.458 C117.235,14.458 116.598,15.095 116.598,16.161 L116.598,20.035 L115.024,20.035 L115.024,10.545 L116.598,10.545 L116.598,14.237 C117.040,13.587 117.677,13.028 118.743,13.028 C120.290,13.028 121.187,14.068 121.187,15.667 L121.187,20.035 L119.614,20.035 L119.614,16.135 ZM118.029,29.045 L118.029,27.995 L120.309,27.995 L120.309,34.220 C120.309,35.660 119.964,36.710 119.289,37.385 C118.539,38.135 117.384,38.465 115.824,38.465 C114.519,38.465 113.289,38.165 112.269,37.625 L113.049,35.915 C113.874,36.380 114.699,36.650 115.764,36.650 C117.324,36.650 118.059,35.900 118.059,34.460 L118.059,34.070 C117.384,34.880 116.649,35.375 115.434,35.375 C113.559,35.375 111.864,34.010 111.864,31.625 L111.864,31.595 C111.864,29.195 113.589,27.845 115.434,27.845 C116.679,27.845 117.414,28.370 118.029,29.045 ZM114.144,31.595 L114.144,31.625 C114.144,32.735 114.984,33.485 116.094,33.485 C117.204,33.485 118.059,32.720 118.059,31.625 L118.059,31.595 C118.059,30.500 117.204,29.735 116.094,29.735 C114.984,29.735 114.144,30.500 114.144,31.595 ZM111.723,17.890 C111.723,18.501 112.035,18.748 112.568,18.748 C112.919,18.748 113.231,18.670 113.543,18.514 L113.543,19.801 C113.153,20.022 112.711,20.152 112.126,20.152 C110.969,20.152 110.150,19.645 110.150,18.137 L110.150,14.523 L109.279,14.523 L109.279,13.171 L110.150,13.171 L110.150,11.286 L111.723,11.286 L111.723,13.171 L113.569,13.171 L113.569,14.523 L111.723,14.523 L111.723,17.890 ZM110.409,31.370 L110.409,36.035 L108.204,36.035 L108.204,35.165 C107.649,35.780 106.884,36.185 105.774,36.185 C104.259,36.185 103.014,35.315 103.014,33.725 L103.014,33.695 C103.014,31.940 104.349,31.130 106.254,31.130 C107.064,31.130 107.649,31.265 108.219,31.460 L108.219,31.325 C108.219,30.380 107.634,29.855 106.494,29.855 C105.624,29.855 105.009,30.020 104.274,30.290 L103.704,28.550 C104.589,28.160 105.459,27.905 106.824,27.905 C108.069,27.905 108.969,28.235 109.539,28.805 C110.139,29.405 110.409,30.290 110.409,31.370 ZM108.249,32.795 C107.859,32.615 107.349,32.495 106.794,32.495 C105.819,32.495 105.219,32.885 105.219,33.605 L105.219,33.635 C105.219,34.250 105.729,34.610 106.464,34.610 C107.529,34.610 108.249,34.025 108.249,33.200 L108.249,32.795 ZM102.558,10.545 L104.131,10.545 L104.131,20.035 L102.558,20.035 L102.558,10.545 ZM98.970,10.545 L100.543,10.545 L100.543,20.035 L98.970,20.035 L98.970,10.545 ZM102.594,27.995 L99.534,31.160 L102.699,36.035 L100.089,36.035 L97.989,32.750 L97.194,33.590 L97.194,36.035 L94.914,36.035 L94.914,25.086 L97.194,25.086 L97.194,30.920 L99.864,27.995 L102.594,27.995 ZM95.577,19.190 C95.109,19.749 94.394,20.178 93.354,20.178 C92.054,20.178 90.910,19.437 90.910,18.059 L90.910,18.033 C90.910,16.512 92.093,15.784 93.692,15.784 C94.524,15.784 95.057,15.901 95.590,16.070 L95.590,15.940 C95.590,14.991 94.992,14.471 93.900,14.471 C93.133,14.471 92.561,14.640 91.937,14.900 L91.508,13.639 C92.262,13.301 93.003,13.067 94.121,13.067 C96.149,13.067 97.137,14.133 97.137,15.966 L97.137,20.035 L95.577,20.035 L95.577,19.190 ZM95.616,17.162 C95.213,17.006 94.654,16.889 94.043,16.889 C93.055,16.889 92.470,17.292 92.470,17.955 L92.470,17.981 C92.470,18.631 93.055,18.995 93.796,18.995 C94.836,18.995 95.616,18.410 95.616,17.552 L95.616,17.162 ZM93.534,29.195 L92.139,30.695 C91.629,30.155 91.119,29.810 90.309,29.810 C89.169,29.810 88.359,30.815 88.359,32.000 L88.359,32.030 C88.359,33.260 89.154,34.250 90.399,34.250 C91.164,34.250 91.689,33.920 92.244,33.395 L93.579,34.745 C92.799,35.600 91.899,36.215 90.294,36.215 C87.879,36.215 86.109,34.355 86.109,32.060 L86.109,32.030 C86.109,29.735 87.864,27.845 90.324,27.845 C91.839,27.845 92.784,28.355 93.534,29.195 ZM88.076,17.890 C88.076,18.501 88.388,18.748 88.921,18.748 C89.272,18.748 89.584,18.670 89.896,18.514 L89.896,19.801 C89.506,20.022 89.064,20.152 88.479,20.152 C87.322,20.152 86.503,19.645 86.503,18.137 L86.503,14.523 L85.632,14.523 L85.632,13.171 L86.503,13.171 L86.503,11.286 L88.076,11.286 L88.076,13.171 L89.922,13.171 L89.922,14.523 L88.076,14.523 L88.076,17.890 ZM82.291,20.165 C81.316,20.165 80.237,19.814 79.379,19.138 L80.081,18.072 C80.822,18.631 81.628,18.917 82.330,18.917 C83.006,18.917 83.396,18.631 83.396,18.176 L83.396,18.150 C83.396,17.617 82.668,17.435 81.862,17.188 C80.848,16.902 79.717,16.486 79.717,15.173 L79.717,15.147 C79.717,13.847 80.796,13.054 82.161,13.054 C83.019,13.054 83.955,13.353 84.683,13.834 L84.059,14.952 C83.396,14.549 82.694,14.302 82.122,14.302 C81.511,14.302 81.160,14.588 81.160,14.991 L81.160,15.017 C81.160,15.511 81.901,15.719 82.707,15.979 C83.708,16.291 84.839,16.746 84.839,17.981 L84.839,18.007 C84.839,19.450 83.721,20.165 82.291,20.165 ZM83.814,28.805 C84.414,29.405 84.684,30.290 84.684,31.370 L84.684,36.035 L82.479,36.035 L82.479,35.165 C81.924,35.780 81.159,36.185 80.049,36.185 C78.534,36.185 77.289,35.315 77.289,33.725 L77.289,33.695 C77.289,31.940 78.624,31.130 80.529,31.130 C81.339,31.130 81.924,31.265 82.494,31.460 L82.494,31.325 C82.494,30.380 81.909,29.855 80.769,29.855 C79.899,29.855 79.284,30.020 78.549,30.290 L77.979,28.550 C78.864,28.160 79.734,27.905 81.099,27.905 C82.344,27.905 83.244,28.235 83.814,28.805 ZM81.069,32.495 C80.094,32.495 79.494,32.885 79.494,33.605 L79.494,33.635 C79.494,34.250 80.004,34.610 80.739,34.610 C81.804,34.610 82.524,34.025 82.524,33.200 L82.524,32.795 C82.134,32.615 81.624,32.495 81.069,32.495 ZM76.597,16.135 C76.597,15.069 76.064,14.458 75.128,14.458 C74.218,14.458 73.581,15.095 73.581,16.161 L73.581,20.035 L72.008,20.035 L72.008,13.171 L73.581,13.171 L73.581,14.237 C74.023,13.587 74.660,13.028 75.726,13.028 C77.273,13.028 78.170,14.068 78.170,15.667 L78.170,20.035 L76.597,20.035 L76.597,16.135 ZM68.290,10.935 L69.889,10.935 L69.889,20.035 L68.290,20.035 L68.290,10.935 ZM76.599,29.165 L76.599,29.195 C76.599,31.625 74.709,32.885 72.354,32.885 L70.599,32.885 L70.599,36.035 L68.289,36.035 L68.289,25.536 L72.579,25.536 C75.084,25.536 76.599,27.021 76.599,29.165 ZM70.599,27.620 L70.599,30.830 L72.429,30.830 C73.584,30.830 74.259,30.140 74.259,29.240 L74.259,29.210 C74.259,28.175 73.539,27.620 72.384,27.620 L70.599,27.620 ZM172.133,20.035 L170.560,20.035 L170.560,13.171 L172.133,13.171 L172.133,20.035 Z"/>
</svg>