<svg
 xmlns="http://www.w3.org/2000/svg"
 xmlns:xlink="http://www.w3.org/1999/xlink"
 width="150px" height="40px">
<rect  x="354" y="672" width="150" height="40" fill="white" />
<path fill-rule="evenodd"  fill="rgb(144, 162, 171)"
 d="M139.840,29.962 L139.840,39.170 L135.747,39.170 L135.747,30.061 L126.572,16.067 L131.358,16.067 L137.827,26.299 L144.362,16.067 L149.015,16.067 L139.840,29.962 ZM117.664,39.170 L113.571,39.170 L113.571,19.830 L106.244,19.830 L106.244,16.067 L124.991,16.067 L124.991,19.830 L117.664,19.830 L117.664,39.170 ZM97.995,16.067 L102.054,16.067 L102.054,39.170 L97.995,39.170 L97.995,16.067 ZM80.968,39.336 L71.363,16.067 L75.852,16.067 L82.816,33.824 L89.747,16.067 L94.137,16.067 L84.532,39.336 L80.968,39.336 ZM68.726,39.170 L66.382,33.593 L55.458,33.593 L53.082,39.170 L48.923,39.170 L59.088,15.902 L62.851,15.902 L73.016,39.170 L68.726,39.170 ZM60.904,20.754 L56.943,29.995 L64.897,29.995 L60.904,20.754 ZM42.193,39.170 L36.517,31.117 L31.434,31.117 L31.434,39.170 L27.374,39.170 L27.374,16.067 L37.672,16.067 C40.576,16.067 42.853,16.925 44.339,18.377 C45.560,19.632 46.253,21.348 46.253,23.361 L46.253,23.427 C46.253,27.223 43.976,29.500 40.741,30.424 L46.979,39.170 L42.193,39.170 ZM42.127,23.658 L42.127,23.592 C42.127,21.117 40.345,19.764 37.342,19.764 L31.434,19.764 L31.434,27.520 L37.375,27.520 C40.279,27.520 42.127,26.002 42.127,23.658 ZM12.790,39.567 C5.562,39.567 0.809,34.418 0.809,27.685 L0.809,27.619 C0.809,21.150 5.760,15.671 12.724,15.671 C16.750,15.671 19.226,16.793 21.602,18.807 L19.028,21.876 C17.245,20.358 15.496,19.401 12.559,19.401 C8.301,19.401 5.067,23.130 5.067,27.553 L5.067,27.619 C5.067,32.371 8.202,35.870 12.922,35.870 C15.100,35.870 17.080,35.177 18.500,34.121 L18.500,29.797 L12.592,29.797 L12.592,26.266 L22.427,26.266 L22.427,35.969 C20.150,37.916 16.882,39.567 12.790,39.567 Z"/>
<path fill-rule="evenodd"  fill="rgb(144, 162, 171)"
 d="M56.810,5.537 L50.247,5.537 C50.423,7.282 51.704,8.290 53.160,8.290 C54.297,8.290 55.097,7.826 55.769,7.122 L56.538,7.810 C55.705,8.738 54.697,9.363 53.128,9.363 C50.855,9.363 48.999,7.618 48.999,5.041 C48.999,2.640 50.679,0.719 52.968,0.719 C55.417,0.719 56.826,2.672 56.826,5.105 C56.826,5.217 56.826,5.345 56.810,5.537 ZM52.936,1.759 C51.512,1.759 50.423,2.944 50.247,4.545 L55.577,4.545 C55.433,3.040 54.569,1.759 52.936,1.759 ZM44.440,9.331 C43.255,9.331 41.943,8.866 41.015,8.114 L41.639,7.234 C42.535,7.906 43.528,8.290 44.504,8.290 C45.496,8.290 46.217,7.778 46.217,6.978 L46.217,6.946 C46.217,6.113 45.240,5.793 44.152,5.489 C42.855,5.121 41.415,4.673 41.415,3.152 L41.415,3.120 C41.415,1.695 42.599,0.751 44.232,0.751 C45.240,0.751 46.361,1.103 47.209,1.663 L46.649,2.592 C45.881,2.096 45.000,1.791 44.200,1.791 C43.223,1.791 42.599,2.304 42.599,2.992 L42.599,3.024 C42.599,3.808 43.624,4.112 44.728,4.449 C46.009,4.833 47.385,5.329 47.385,6.818 L47.385,6.850 C47.385,8.418 46.089,9.331 44.440,9.331 ZM36.615,5.873 L36.615,9.170 L35.383,9.170 L35.383,0.895 L36.615,0.895 L36.615,3.056 C37.224,1.679 38.424,0.687 39.993,0.751 L39.993,2.080 L39.897,2.080 C38.088,2.080 36.615,3.376 36.615,5.873 ZM26.807,5.537 C26.983,7.282 28.264,8.290 29.720,8.290 C30.857,8.290 31.657,7.826 32.329,7.122 L33.098,7.810 C32.265,8.738 31.257,9.363 29.688,9.363 C27.415,9.363 25.559,7.618 25.559,5.041 C25.559,2.640 27.239,0.719 29.528,0.719 C31.977,0.719 33.386,2.672 33.386,5.105 C33.386,5.217 33.386,5.345 33.370,5.537 L26.807,5.537 ZM29.496,1.759 C28.072,1.759 26.983,2.944 26.807,4.545 L32.137,4.545 C31.993,3.040 31.129,1.759 29.496,1.759 ZM20.088,9.235 L16.503,0.895 L17.863,0.895 L20.648,7.762 L23.449,0.895 L24.778,0.895 L21.176,9.235 L20.088,9.235 ZM9.143,5.537 C9.319,7.282 10.600,8.290 12.056,8.290 C13.193,8.290 13.993,7.826 14.665,7.122 L15.434,7.810 C14.601,8.738 13.593,9.363 12.024,9.363 C9.751,9.363 7.895,7.618 7.895,5.041 C7.895,2.640 9.575,0.719 11.864,0.719 C14.313,0.719 15.722,2.672 15.722,5.105 C15.722,5.217 15.722,5.345 15.706,5.537 L9.143,5.537 ZM11.832,1.759 C10.408,1.759 9.319,2.944 9.143,4.545 L14.473,4.545 C14.329,3.040 13.465,1.759 11.832,1.759 ZM3.671,5.873 L3.671,9.170 L2.439,9.170 L2.439,0.895 L3.671,0.895 L3.671,3.056 C4.279,1.679 5.480,0.687 7.048,0.751 L7.048,2.080 L6.952,2.080 C5.144,2.080 3.671,3.376 3.671,5.873 Z"/>
</svg>