<svg
 xmlns="http://www.w3.org/2000/svg"
 xmlns:xlink="http://www.w3.org/1999/xlink"
 width="45px" height="58px">
<defs>
<linearGradient id="PSgrad_0" x1="0%" x2="30.902%" y1="95.106%" y2="0%">
  <stop offset="0%" stop-color="rgb(255,152,0)" stop-opacity="1" />
  <stop offset="47%" stop-color="rgb(244,142,0)" stop-opacity="1" />
  <stop offset="100%" stop-color="rgb(196,105,0)" stop-opacity="1" />
</linearGradient>

</defs>
<path fill-rule="evenodd"  opacity="0" fill="rgb(0, 0, 0)"
 d="M0.000,-0.000 L45.000,-0.000 L45.000,58.000 L0.000,58.000 L0.000,-0.000 Z"/>
<path fill-rule="evenodd"  fill="rgb(255, 148, 48)"
 d="M43.988,29.852 C43.988,29.213 43.515,28.844 42.934,29.028 L2.081,41.757 C1.499,41.941 1.027,42.609 1.027,43.247 L1.027,56.172 C1.027,56.811 1.499,57.181 2.081,56.997 L42.934,44.269 C43.515,44.084 43.988,43.416 43.988,42.777 L43.988,29.852 L43.988,29.852 Z"/>
<path fill="url(#PSgrad_0)"
 d="M43.988,29.852 C43.988,29.213 43.515,28.844 42.934,29.028 L2.081,41.757 C1.499,41.941 1.027,42.609 1.027,43.247 L1.027,56.172 C1.027,56.811 1.499,57.181 2.081,56.997 L42.934,44.269 C43.515,44.084 43.988,43.416 43.988,42.777 L43.988,29.852 L43.988,29.852 Z"/>
<path fill-rule="evenodd"  fill="rgb(255, 152, 0)"
 d="M43.988,29.860 L43.988,42.785 C43.988,43.423 43.516,43.793 42.934,43.608 L2.080,30.796 C1.525,30.620 1.081,30.001 1.042,29.389 C1.040,29.361 1.027,29.342 1.027,29.313 L1.027,29.304 L1.027,16.389 L1.027,16.380 C1.027,16.356 1.038,16.339 1.040,16.315 C1.074,15.699 1.521,15.074 2.081,14.897 L42.934,1.752 C43.515,1.568 43.988,1.938 43.988,2.577 L43.988,15.501 C43.988,16.139 43.515,16.808 42.934,16.992 L25.604,22.681 L42.934,28.370 C43.516,28.554 43.988,29.222 43.988,29.860 Z"/>
</svg>